<svg width="281" height="51" viewBox="0 0 281 51" fill="none" xmlns="http://www.w3.org/2000/svg">
<path d="M64.2304 23.4266C64.0152 23.0243 63.7064 22.7169 63.3043 22.5041C62.902 22.2915 62.4291 22.1851 61.8853 22.1851C60.9449 22.1851 60.1916 22.4984 59.6252 23.1248C59.0586 23.7515 58.7755 24.5878 58.7755 25.6338C58.7755 26.749 59.073 27.6198 59.6678 28.2462C60.2625 28.8729 61.0808 29.186 62.1232 29.186C62.837 29.186 63.4403 29.0022 63.9331 28.6342C64.4259 28.2664 64.7854 27.7375 65.0121 27.0478H61.3246V24.8751H67.6461V27.6168C67.4308 28.3527 67.0654 29.0367 66.5501 29.6688C66.0343 30.3012 65.3802 30.8128 64.5873 31.2035C63.7941 31.5944 62.8991 31.7898 61.9024 31.7898C60.724 31.7898 59.6733 31.5284 58.7502 31.0052C57.8267 30.4822 57.1074 29.755 56.5921 28.8238C56.0763 27.8927 55.8187 26.8295 55.8187 25.6338C55.8187 24.438 56.0763 23.3722 56.5921 22.4351C57.1074 21.4982 57.824 20.7683 58.7416 20.2451C59.6592 19.7221 60.707 19.4605 61.8853 19.4605C63.3128 19.4605 64.5164 19.8113 65.4964 20.5124C66.4763 21.2137 67.1249 22.185 67.4422 23.4266L64.2304 23.4266Z" fill="#06092C"/>
<path d="M75.5137 19.5985V26.8409C75.5137 27.5651 75.6893 28.1228 76.0406 28.5135C76.3915 28.9045 76.9072 29.0998 77.5869 29.0998C78.2666 29.0998 78.7876 28.9045 79.1504 28.5135C79.5128 28.1228 79.694 27.5651 79.694 26.8409V19.5985H82.5999V26.8237C82.5999 27.9043 82.3732 28.8183 81.9203 29.5654C81.467 30.3128 80.8582 30.8759 80.0935 31.2553C79.3287 31.6346 78.4762 31.8244 77.536 31.8244C76.5958 31.8244 75.7544 31.6376 75.0125 31.2639C74.2704 30.8905 73.684 30.3271 73.2537 29.5741C72.8229 28.8213 72.6079 27.9044 72.6079 26.8237V19.5985L75.5137 19.5985Z" fill="#06092C"/>
<path d="M95.4634 29.5654H91.0112L90.2976 31.7036H87.2558L91.5721 19.5985H94.9367L99.253 31.7036H96.1772L95.4634 29.5654ZM94.7158 27.2892L93.2373 22.8576L91.7759 27.2892H94.7158Z" fill="#06092C"/>
<path d="M110.044 31.7036L107.563 27.134H106.866V31.7036H103.96V19.5985H108.837C109.777 19.5985 110.579 19.7653 111.242 20.0986C111.904 20.4321 112.4 20.8891 112.729 21.4695C113.057 22.0501 113.221 22.6967 113.221 23.4094C113.221 24.2142 112.997 24.9328 112.55 25.5648C112.102 26.1972 111.443 26.6455 110.571 26.9099L113.323 31.7036H110.044ZM106.866 25.0475H108.667C109.2 25.0475 109.599 24.9155 109.865 24.6509C110.131 24.3866 110.265 24.0129 110.265 23.5301C110.265 23.0704 110.131 22.7083 109.865 22.4437C109.599 22.1794 109.2 22.0471 108.667 22.0471H106.866V25.0475Z" fill="#06092C"/>
<path d="M126.204 20.3572C127.144 20.8632 127.872 21.5729 128.388 22.4868C128.903 23.4007 129.161 24.4556 129.161 25.651C129.161 26.8352 128.903 27.8871 128.388 28.8066C127.872 29.7265 127.141 30.4392 126.195 30.9449C125.249 31.4509 124.153 31.7036 122.907 31.7036H118.438V19.5985H122.907C124.165 19.5985 125.264 19.8515 126.204 20.3572ZM125.286 28.2376C125.898 27.6284 126.204 26.7662 126.204 25.651C126.204 24.5358 125.898 23.668 125.286 23.0472C124.675 22.4265 123.819 22.1161 122.72 22.1161H121.344V29.1515H122.72C123.819 29.1515 124.675 28.8471 125.286 28.2376Z" fill="#06092C"/>
<path d="M137.096 19.5985V31.7036H134.191V19.5985H137.096Z" fill="#06092C"/>
<path d="M150.028 29.5654H145.576L144.862 31.7036H141.821L146.137 19.5985H149.501L153.818 31.7036H150.742L150.028 29.5654ZM149.281 27.2892L147.802 22.8576L146.341 27.2892H149.281Z" fill="#06092C"/>
<path d="M169.197 31.7036H166.291L161.431 24.2371V31.7036H158.525V19.5985H161.431L166.291 27.0995V19.5985H169.197V31.7036Z" fill="#06092C"/>
<path d="M190.319 25.4183C190.001 25.9989 189.514 26.4674 188.857 26.8237C188.2 27.1801 187.385 27.3582 186.41 27.3582H184.609V31.7036H181.703V19.5985H186.41C187.362 19.5985 188.166 19.7653 188.823 20.0986C189.48 20.4321 189.973 20.8918 190.302 21.4781C190.63 22.0644 190.795 22.7369 190.795 23.4956C190.795 24.1969 190.636 24.8379 190.319 25.4183ZM187.43 24.6164C187.702 24.3521 187.838 23.9785 187.838 23.4956C187.838 23.0128 187.702 22.6394 187.43 22.3748C187.158 22.1105 186.744 21.9782 186.19 21.9782H184.609V25.013H186.19C186.744 25.013 187.158 24.881 187.43 24.6164Z" fill="#06092C"/>
<path d="M201.789 31.7036L199.308 27.134H198.611V31.7036H195.706V19.5985H200.583C201.523 19.5985 202.324 19.7653 202.987 20.0986C203.65 20.4321 204.145 20.8891 204.474 21.4695C204.802 22.0501 204.967 22.6967 204.967 23.4094C204.967 24.2142 204.743 24.9328 204.295 25.5648C203.848 26.1972 203.188 26.6455 202.316 26.9099L205.069 31.7036H201.789ZM198.611 25.0475H200.413C200.945 25.0475 201.344 24.9155 201.611 24.6509C201.877 24.3866 202.01 24.0129 202.01 23.5301C202.01 23.0704 201.877 22.7083 201.611 22.4437C201.344 22.1794 200.945 22.0471 200.413 22.0471H198.611V25.0475Z" fill="#06092C"/>
<path d="M212.741 31.0311C211.807 30.5025 211.064 29.7637 210.515 28.8153C209.965 27.8669 209.691 26.8007 209.691 25.6166C209.691 24.4325 209.965 23.3692 210.515 22.4265C211.064 21.484 211.807 20.7482 212.741 20.2193C213.676 19.6906 214.704 19.4261 215.825 19.4261C216.947 19.4261 217.975 19.6906 218.91 20.2193C219.844 20.7482 220.581 21.484 221.119 22.4265C221.657 23.3692 221.926 24.4327 221.926 25.6166C221.926 26.8005 221.654 27.8669 221.11 28.8153C220.566 29.7637 219.83 30.5025 218.901 31.0311C217.972 31.56 216.947 31.8243 215.825 31.8243C214.704 31.8243 213.676 31.56 212.741 31.0311ZM218.111 28.1686C218.683 27.525 218.969 26.6744 218.969 25.6166C218.969 24.5475 218.683 23.6939 218.111 23.0558C217.539 22.4179 216.777 22.0988 215.825 22.0988C214.862 22.0988 214.095 22.4152 213.523 23.0472C212.951 23.6796 212.665 24.5361 212.665 25.6166C212.665 26.6857 212.951 27.5392 213.523 28.1772C214.095 28.8152 214.862 29.1343 215.825 29.1343C216.777 29.1343 217.539 28.8126 218.111 28.1686Z" fill="#06092C"/>
<path d="M233.736 19.5985V27.841C233.736 29.117 233.382 30.0999 232.674 30.7897C231.966 31.4794 231.011 31.8243 229.811 31.8243C228.553 31.8243 227.545 31.4622 226.786 30.7379C226.027 30.0137 225.647 28.985 225.647 27.6513H228.536C228.536 28.1573 228.638 28.5394 228.842 28.798C229.046 29.0567 229.34 29.186 229.726 29.186C230.077 29.186 230.349 29.0712 230.541 28.8411C230.734 28.6113 230.83 28.278 230.83 27.841V19.5984L233.736 19.5985Z" fill="#06092C"/>
<path d="M242.385 21.9609V24.4095H246.277V26.6857H242.385V29.3412H246.786V31.7036H239.48V19.5985H246.786V21.9609L242.385 21.9609Z" fill="#06092C"/>
<path d="M252.343 22.4351C252.853 21.4983 253.564 20.7684 254.476 20.2452C255.388 19.7222 256.421 19.4606 257.577 19.4606C258.993 19.4606 260.205 19.8399 261.214 20.5987C262.222 21.3574 262.896 22.392 263.236 23.7025H260.041C259.803 23.1968 259.466 22.8118 259.03 22.5472C258.594 22.2829 258.098 22.1506 257.543 22.1506C256.648 22.1506 255.923 22.4669 255.368 23.099C254.813 23.7314 254.535 24.5763 254.535 25.6338C254.535 26.6914 254.813 27.5365 255.368 28.1687C255.923 28.801 256.648 29.117 257.543 29.117C258.098 29.117 258.594 28.9851 259.03 28.7205C259.466 28.4561 259.803 28.0711 260.041 27.5651H263.236C262.896 28.8756 262.222 29.9076 261.214 30.6604C260.205 31.4135 258.993 31.7898 257.577 31.7898C256.421 31.7898 255.388 31.5285 254.476 31.0053C253.564 30.4823 252.853 29.7551 252.343 28.8239C251.833 27.8928 251.578 26.8296 251.578 25.6338C251.578 24.4381 251.833 23.3722 252.343 22.4351Z" fill="#06092C"/>
<path d="M277 19.5985V21.9609H273.839V31.7036H270.933V21.9609H267.773V19.5985H277Z" fill="#06092C"/>
<path fill-rule="evenodd" clip-rule="evenodd" d="M25.8388 34.0965H19.4019L25.8388 34.0965L34.0257 25.7889L25.8388 34.0965ZM28.0198 25.85L20.2483 17.9638L25.8413 17.9823L33.5343 25.7889L25.6923 33.7465H20.2382L28.0198 25.85ZM36.3964 27.1545C36.4007 27.038 36.4044 26.9213 36.4075 26.8045C36.4044 26.9213 36.4007 27.038 36.3964 27.1545ZM36.3964 24.5455C36.4007 24.662 36.4044 24.7787 36.4075 24.8955H35.8057L36.4075 24.8955C36.4044 24.7787 36.4007 24.662 36.3964 24.5455ZM32.7826 39.722C31.0889 42.6651 29.0015 44.4373 26.8281 44.9392V36.2909L35.8317 27.1545H36.0461C35.8689 31.9334 34.7205 36.3546 32.7826 39.722ZM26.9169 15.377L26.8281 15.3767V6.76081C29.0015 7.26268 31.0889 9.03492 32.7827 11.978C34.7205 15.3454 35.8689 19.7666 36.0462 24.5455H35.9522L26.9169 15.377ZM25.5376 4C13.6567 4 4 13.8064 4 25.85C4 37.8936 13.6567 47.7 25.5376 47.7C37.4186 47.7 47.0752 37.8936 47.0752 25.85C47.0752 13.8064 37.4186 4 25.5376 4ZM33.4699 8.37595C39.6023 11.2556 43.9748 17.3667 44.4505 24.5455H38.6279C38.4473 19.33 37.1864 14.4414 35.0138 10.6662C34.5323 9.82965 34.0163 9.06497 33.4699 8.37595ZM18.2925 11.978C19.9862 9.03492 22.0737 7.26267 24.2471 6.76081V15.3681L16.7419 15.3433C17.1819 14.1355 17.7004 13.007 18.2925 11.978ZM15.0291 24.5455C15.122 22.0447 15.4827 19.6415 16.0829 17.4338L23.0912 24.5455H15.0291ZM15.0291 27.1545H23.0912L16.0829 34.2662C15.4827 32.0585 15.122 29.6553 15.0291 27.1545ZM24.2471 36.3554V44.9392C22.0737 44.4373 19.9862 42.6651 18.2925 39.722C17.7002 38.6926 17.1816 37.5637 16.7415 36.3554H24.2471ZM18.8705 7.46342C18.8705 7.46342 18.8705 7.46342 18.8705 7.46342C17.9638 8.39457 17.1223 9.52452 16.3647 10.8408C15.2721 12.7393 14.4114 14.9286 13.807 17.3055C14.4114 14.9286 15.2721 12.7393 16.3647 10.8408C16.9682 9.79219 17.625 8.86184 18.3256 8.05604C18.5044 7.85035 18.6861 7.65278 18.8705 7.46342ZM16.0614 10.6662C16.5428 9.82964 17.0589 9.06497 17.6053 8.37596C11.473 11.2556 7.10057 17.3668 6.62484 24.5455H12.4471C12.6277 19.3299 13.8888 14.4414 16.0614 10.6662ZM17.6053 43.324C11.473 40.4443 7.10055 34.3332 6.62484 27.1545H12.4471C12.6277 32.3701 13.8888 37.2586 16.0614 41.0338C16.5428 41.8703 17.0589 42.635 17.6053 43.324ZM44.4505 27.1545C43.9748 34.3333 39.6023 40.4444 33.4699 43.324C34.0163 42.635 34.5323 41.8703 35.0138 41.0338C37.1864 37.2586 38.4473 32.37 38.6279 27.1545H44.4505Z" fill="#04A052"/>
</svg>
