<svg width="236" height="236" viewBox="0 0 236 236" fill="none" xmlns="http://www.w3.org/2000/svg">
<path d="M116.609 1.03442C52.6103 1.96082 1 54.1546 1 118.393H49.8306C49.8306 54.6009 79.5821 2.64692 116.609 1.03442Z" fill="#5CE589"/>
<path d="M49.8306 118.393H1C1 182.666 52.6103 234.826 116.609 235.752C79.5822 234.139 49.8306 182.22 49.8306 118.393Z" fill="#007F3C"/>
<path d="M186.955 118.393C186.955 182.22 157.204 234.139 120.177 235.752C184.176 234.826 235.786 182.666 235.786 118.393H186.955Z" fill="#005B29"/>
<path d="M186.955 118.393H235.786C235.786 54.1546 184.176 1.96082 120.177 1.03442C157.204 2.64692 186.955 54.6009 186.955 118.393Z" fill="#007F3C"/>
<path d="M69.6491 170.978L118.393 118.403L118.384 118.393H49.8306C49.8306 182.22 79.5821 234.139 116.609 235.752C117.227 235.786 117.81 235.786 118.393 235.786V170.978H69.6491Z" fill="#04A052"/>
<path d="M49.8306 118.393H118.384L69.649 65.8275L118.393 65.9862V1C117.81 1 117.226 1 116.609 1.0344C79.5821 2.6469 49.8306 54.6009 49.8306 118.393Z" fill="#1DD660"/>
<path d="M123.272 66.0021L171.492 118.053L171.177 118.393H186.955C186.955 54.6009 157.204 2.6469 120.178 1.0344C119.56 1 118.977 1 118.393 1V65.9862L123.272 66.0021Z" fill="#04A052"/>
<path d="M186.955 118.393H171.177L122.399 170.978H118.393V235.786C118.977 235.786 119.56 235.786 120.178 235.752C157.204 234.139 186.955 182.22 186.955 118.393Z" fill="#007F3C"/>
</svg>
