<svg width="100" height="100" viewBox="0 0 100 100" fill="none" xmlns="http://www.w3.org/2000/svg">
<path fill-rule="evenodd" clip-rule="evenodd" d="M50.6392 66.2197H38.4941L50.6392 66.2197L66.0862 50.545L50.6392 66.2197ZM54.7544 50.6604L40.0911 35.7808L50.6439 35.8157L65.1591 50.545L50.3628 65.5594H40.072L54.7544 50.6604ZM70.5593 48.1991C70.5673 48.4189 70.5743 48.639 70.5802 48.8595H69.4447L70.5802 48.8595C70.5743 48.639 70.5673 48.4189 70.5593 48.1991ZM63.7408 76.834C60.5451 82.387 56.6066 85.7308 52.5059 86.6777V70.3603L69.4937 53.1216H69.8984C69.564 62.1385 67.3971 70.4804 63.7408 76.834ZM52.6735 30.8999L52.5059 30.8994V14.643C56.6067 15.59 60.5451 18.9338 63.7409 24.4868C67.3971 30.8403 69.564 39.1822 69.8984 48.1991H69.7211L52.6735 30.8999ZM50.071 9.43396C27.6541 9.43396 9.43396 27.9367 9.43396 50.6604C9.43396 73.3841 27.6541 91.8867 50.071 91.8867C72.4879 91.8867 90.7078 73.3841 90.7078 50.6604C90.7078 27.9367 72.4879 9.43396 50.071 9.43396ZM65.0375 17.6905C76.608 23.1237 84.858 34.6542 85.7557 48.1991H74.7697C74.4289 38.3584 72.0498 29.1348 67.9505 22.0117C67.0421 20.4333 66.0685 18.9905 65.0375 17.6905ZM36.4009 24.4868C39.5967 18.9338 43.5353 15.5899 47.6361 14.643V30.8833L33.4754 30.8365C34.3056 28.5576 35.2837 26.4283 36.4009 24.4868ZM30.2436 48.1991C30.4189 43.4805 31.0994 38.9461 32.2318 34.7808L45.4551 48.1991H30.2436ZM30.2436 53.1216H45.4551L32.2318 66.5399C31.0994 62.3746 30.4189 57.8401 30.2436 53.1216ZM47.6361 70.4818V86.6777C43.5353 85.7307 39.5967 82.3869 36.4009 76.834C35.2833 74.8918 34.305 72.7616 33.4746 70.4818H47.6361ZM36.6369 16.8892C36.5789 16.9547 36.5211 17.0205 36.4634 17.0869C35.9677 17.657 35.4836 18.2602 35.0121 18.8958C35.5385 18.1863 36.0805 17.5171 36.6369 16.8892ZM32.7908 22.294C32.7817 22.3097 32.7727 22.3254 32.7637 22.3411C32.4415 22.9008 32.1301 23.4739 31.8295 24.0597C32.1301 23.4739 32.4416 22.9008 32.7637 22.3411C32.7727 22.3254 32.7817 22.3097 32.7908 22.294ZM32.1913 22.0117C33.0997 20.4333 34.0734 18.9905 35.1043 17.6905C23.5339 23.1238 15.2841 34.6543 14.3865 48.1991H25.3719C25.7127 38.3584 28.092 29.1348 32.1913 22.0117ZM35.1043 83.6302C23.5339 78.1969 15.2841 66.6664 14.3865 53.1216H25.3719C25.7127 62.9624 28.092 72.186 32.1913 79.309C33.0997 80.8874 34.0734 82.3302 35.1043 83.6302ZM85.7557 53.1216C84.858 66.6665 76.608 78.197 65.0375 83.6303C66.0684 82.3302 67.0421 80.8874 67.9505 79.309C72.0498 72.186 74.4289 62.9623 74.7697 53.1216H85.7557Z" fill="#04A052"/>
</svg>
